<svg viewBox="0 0 1400 400" fill="none" xmlns="http://www.w3.org/2000/svg">
<path d="M73.6822 312V85.6778H121.117L184.053 268.596C183.433 261.982 182.71 254.231 181.883 245.343C181.263 236.249 180.746 227.052 180.333 217.751C179.919 208.243 179.713 199.976 179.713 192.948V85.6778H215.056V312H167.621L105.305 129.082C105.719 135.076 106.235 142.31 106.855 150.784C107.476 159.258 107.992 167.939 108.406 176.827C108.819 185.714 109.026 193.878 109.026 201.319V312H73.6822ZM264.54 312V85.6778H400.333V119.471H302.674V178.377H389.482V211.86H302.674V278.207H400.333V312H264.54ZM446.717 312V85.6778H518.334C533.422 85.6778 546.443 88.4681 557.397 94.0486C568.559 99.6292 577.239 107.483 583.44 117.611C589.641 127.532 592.741 139.313 592.741 152.954C592.741 167.836 588.917 180.96 581.27 192.328C573.829 203.696 563.701 211.757 550.887 216.511L595.841 312H552.437L513.063 222.091H485.47V312H446.717ZM485.47 187.988H518.334C529.288 187.988 537.866 184.991 544.066 178.997C550.267 173.003 553.367 164.736 553.367 154.195C553.367 143.447 550.267 135.076 544.066 129.082C537.866 122.881 529.288 119.781 518.334 119.781H485.47V187.988ZM632.304 312V85.6778H699.58C714.875 85.6778 728.103 88.5714 739.264 94.3587C750.632 100.146 759.416 108.31 765.617 118.851C771.817 129.392 774.918 141.897 774.918 156.365V241.003C774.918 255.264 771.817 267.769 765.617 278.517C759.416 289.058 750.632 297.325 739.264 303.319C728.103 309.106 714.875 312 699.58 312H632.304ZM671.058 276.347H699.58C710.741 276.347 719.629 273.246 726.243 267.046C732.857 260.638 736.164 251.957 736.164 241.003V156.365C736.164 145.617 732.857 137.143 726.243 130.942C719.629 124.535 710.741 121.331 699.58 121.331H671.058V276.347ZM818.821 312V85.6778H888.268C910.177 85.6778 927.538 90.9483 940.353 101.489C953.167 111.824 959.575 125.982 959.575 143.964C959.575 154.091 957.301 162.875 952.754 170.316C948.207 177.757 942.006 183.544 934.152 187.678C926.505 191.812 917.617 193.878 907.49 193.878V192.638C918.444 192.432 928.158 194.498 936.632 198.839C945.313 202.973 952.134 209.173 957.094 217.441C962.262 225.708 964.845 235.733 964.845 247.514C964.845 260.535 961.848 271.903 955.854 281.617C949.86 291.331 941.386 298.875 930.432 304.249C919.684 309.416 906.766 312 891.678 312H818.821ZM856.645 279.757H889.198C900.566 279.757 909.453 276.76 915.86 270.766C922.474 264.565 925.781 256.195 925.781 245.653C925.781 235.112 922.474 226.638 915.86 220.231C909.453 213.617 900.566 210.31 889.198 210.31H856.645V279.757ZM856.645 178.997H887.648C897.982 178.997 906.043 176.31 911.83 170.936C917.824 165.356 920.821 157.812 920.821 148.304C920.821 138.796 917.824 131.356 911.83 125.982C906.043 120.608 897.982 117.921 887.648 117.921H856.645V178.997ZM1008.75 312V277.897H1054.32V119.781H1008.75V85.6778H1138.96V119.781H1093.39V277.897H1138.96V312H1008.75ZM1240.22 312V121.641H1181V85.6778H1338.5V121.641H1279.28V312H1240.22Z" fill="#EAEAEA"/>
</svg>
