<svg viewBox="0 0 495 495" fill="none" xmlns="http://www.w3.org/2000/svg">
<path fill-rule="evenodd" clip-rule="evenodd" d="M266.265 68.5396C335.974 81.0936 392.386 102.614 392.386 102.614C392.386 102.614 409.966 148.698 422.617 209.032L481.013 143.605C468.496 86.1443 452.108 43.0396 452.108 43.0396C452.108 43.0396 413.501 28.2611 360.696 16.0238L266.265 68.5396ZM263.512 0.936753C202.278 -3.11484 140.434 5.09265 102.616 43.0396C92.5238 53.1659 84.5425 65.0091 78.3407 78.0992C65.0938 84.3347 53.1157 92.3916 42.8932 102.614C-53.6165 199.124 42.8932 452.107 42.8932 452.107C42.8932 452.107 295.876 548.617 392.386 452.107C402.091 442.402 409.844 431.115 415.939 418.662C429.473 412.359 441.701 404.168 452.108 393.725C487.208 358.505 496.777 302.518 494.743 245.527L435.226 312.21C435.864 350.611 430.88 388.139 415.939 418.662C303.977 470.804 102.616 393.725 102.616 393.725C102.616 393.725 25.2344 190.192 78.3407 78.0992C101.496 67.1998 128.529 61.8659 156.84 60.2598L263.512 0.936753Z" fill="black"/>
</svg>
