<svg viewBox="0 0 680 680" fill="none" xmlns="http://www.w3.org/2000/svg">
<path fill-rule="evenodd" clip-rule="evenodd" d="M621.078 59.1251C621.078 59.1251 273.546 -73.9064 140.967 59.1251C127.103 73.036 116.139 89.3054 107.62 107.288C89.4218 115.854 72.9671 126.922 58.924 140.965C-73.655 273.544 58.924 621.076 58.924 621.076C58.924 621.076 406.456 753.655 539.035 621.076C552.367 607.744 563.018 592.239 571.391 575.132C589.983 566.473 606.781 555.221 621.078 540.875C753.657 407.843 621.078 59.1251 621.078 59.1251ZM571.391 575.132C646.291 422.117 539.035 140.965 539.035 140.965C539.035 140.965 261.227 34.9844 107.62 107.288C34.6655 261.273 140.967 540.875 140.967 540.875C140.967 540.875 417.584 646.761 571.391 575.132Z" fill="url(#paint0_linear_1214_42)"/>
<defs>
<linearGradient id="paint0_linear_1214_42" x1="319.798" y1="120.35" x2="319.798" y2="602.099" gradientUnits="userSpaceOnUse">
<stop stop-color="#FF5D53"/>
<stop offset="1" stop-color="#FF9458"/>
</linearGradient>
</defs>
</svg>
